<?xml version="1.0" standalone="no"?>
<!DOCTYPE svg PUBLIC "-//W3C//DTD SVG 20010904//EN"
 "http://www.w3.org/TR/2001/REC-SVG-20010904/DTD/svg10.dtd">
<svg version="1.0" xmlns="http://www.w3.org/2000/svg"
 width="300.000000pt" height="74.000000pt" viewBox="0 0 300.000000 74.000000"
 preserveAspectRatio="xMidYMid meet">
<metadata>
Created by potrace 1.10, written by Peter Selinger 2001-2011
</metadata>
<g transform="translate(0.000000,74.000000) scale(0.100000,-0.100000)"
fill="#000000" stroke="none">
<path d="M695 638 c-33 -39 -101 -174 -149 -296 -49 -125 -58 -138 -98 -137
-32 0 -33 1 -33 43 0 23 -1 42 -2 42 -1 0 -25 -23 -52 -50 -49 -48 -56 -65
-17 -35 26 19 46 19 46 0 0 -22 24 -29 51 -14 18 9 24 9 27 -1 3 -8 13 -2 28
16 23 28 23 28 24 6 0 -30 22 -37 59 -17 17 8 31 17 31 18 0 2 -16 1 -35 -1
-58 -7 -54 16 22 145 109 186 164 313 135 313 -6 0 -22 -14 -37 -32z m20 -27
c-13 -38 -144 -281 -151 -281 -3 0 68 154 111 240 43 86 63 106 40 41z"/>
<path d="M1566 661 c-3 -4 6 -6 19 -3 22 4 25 1 25 -27 0 -41 -35 -132 -108
-277 -53 -106 -65 -123 -93 -133 -65 -23 -68 40 -4 76 50 28 36 30 -20 3 -42
-20 -65 -53 -65 -91 0 -31 25 -33 82 -7 51 24 54 24 68 7 8 -9 26 -21 40 -25
24 -6 24 -6 9 12 -31 37 -29 53 15 152 72 161 106 288 82 312 -12 12 -43 13
-50 1z"/>
<path d="M1974 598 c-23 -11 -44 -48 -44 -77 0 -18 -20 -31 -74 -51 -16 -6
-26 -13 -23 -16 3 -3 26 4 52 15 42 18 46 19 41 3 -2 -9 -8 -42 -11 -72 -11
-89 -36 -194 -51 -211 -32 -36 -9 -36 101 1 99 34 182 76 171 87 -1 2 -23 -8
-47 -22 -36 -19 -179 -60 -185 -52 -1 1 10 67 23 147 24 141 26 146 64 187 56
61 47 93 -17 61z m-4 -38 c-6 -12 -14 -19 -17 -17 -2 3 1 15 7 27 6 12 14 19
17 17 2 -3 -1 -15 -7 -27z"/>
<path d="M272 577 c-29 -31 -28 -74 4 -120 48 -71 40 -133 -28 -219 -41 -53
-127 -120 -145 -114 -7 3 -13 1 -13 -4 0 -6 9 -10 21 -10 25 0 157 125 199
189 38 56 38 82 0 151 -36 67 -37 81 -7 116 18 20 28 25 46 19 16 -5 20 -12
16 -26 -4 -13 -2 -19 9 -19 21 0 21 46 0 54 -35 13 -81 6 -102 -17z"/>
<path d="M467 452 c-20 -22 -50 -92 -43 -99 3 -3 20 18 37 46 18 28 36 51 40
51 5 0 9 5 9 10 0 16 -26 11 -43 -8z"/>
<path d="M927 452 c-20 -22 -50 -92 -43 -99 3 -3 20 18 37 46 18 28 36 51 40
51 5 0 9 5 9 10 0 16 -26 11 -43 -8z"/>
<path d="M808 373 c-9 -10 -38 -53 -65 -95 l-49 -77 -13 49 c-12 46 -35 79
-47 67 -3 -3 2 -20 12 -39 10 -18 22 -57 28 -87 l11 -54 37 74 c21 41 55 98
78 127 37 48 43 74 8 35z"/>
<path d="M1024 311 c-47 -22 -87 -71 -82 -104 4 -32 35 -32 100 0 31 16 54 24
51 17 -5 -15 16 -31 52 -39 30 -7 30 -7 8 9 -14 11 -23 29 -25 54 -4 43 -28
54 -43 20 -6 -13 -27 -32 -47 -43 -35 -18 -39 -19 -54 -4 -23 24 -4 53 54 84
55 28 45 33 -14 6z"/>
<path d="M1591 303 c-11 -16 -31 -38 -43 -50 -19 -20 -20 -23 -5 -23 9 0 17
-6 17 -14 0 -28 59 -34 100 -11 24 14 24 15 -15 10 -22 -3 -47 -1 -55 4 -12 8
-7 17 28 49 23 21 42 44 42 50 0 23 -48 12 -69 -15z m47 5 c-2 -6 -15 -18 -28
-27 -21 -14 -23 -14 -16 -1 16 27 28 40 38 40 5 0 8 -5 6 -12z"/>
<path d="M2430 312 c-20 -10 -43 -33 -55 -55 l-20 -38 24 -20 c32 -26 65 -24
98 7 22 20 23 24 8 19 -43 -16 -62 -16 -78 -1 -33 34 14 90 76 88 23 -1 27 2
17 8 -21 13 -30 12 -70 -8z"/>
<path d="M2594 316 c-36 -16 -74 -61 -74 -87 0 -22 36 -49 66 -49 23 0 74 35
74 51 0 6 -10 3 -22 -5 -28 -20 -62 -20 -78 -1 -28 33 24 89 83 87 23 -1 27 2
17 8 -20 13 -29 12 -66 -4z"/>
<path d="M2775 316 c-44 -19 -87 -73 -83 -105 4 -35 26 -37 89 -7 62 30 59 30
59 12 0 -17 5 -21 45 -30 l30 -8 -22 24 c-12 13 -23 36 -25 53 -2 20 -9 31
-22 33 -11 3 -16 0 -12 -7 9 -15 -36 -59 -69 -67 -66 -16 -58 53 10 86 62 30
62 43 0 16z"/>
<path d="M2165 299 c4 -17 1 -39 -9 -57 -18 -35 -12 -62 13 -62 10 0 39 11 64
24 26 13 47 20 47 15 0 -11 60 -42 68 -35 3 3 1 6 -5 6 -12 0 -33 44 -33 69 0
10 -8 21 -19 24 -14 3 -17 0 -14 -14 4 -13 -5 -24 -28 -38 -59 -36 -86 -23
-65 31 8 23 7 31 -7 45 -18 17 -18 17 -12 -8z"/>
<path d="M817 238 c-47 -46 -53 -63 -13 -33 27 20 43 19 49 -5 6 -23 25 -26
52 -7 17 13 16 14 -6 13 -21 -1 -25 4 -29 39 l-5 40 -48 -47z"/>
</g>
</svg>
